Monoid-Diacritics-Bold.sfdir
StartChar: A
Encoding: 65 65 19
GlifName: A_
Width: 1024
VWidth: 0
Flags: W
HStem: 0 21G<105 369.672 782.323 1047> 272 240<439.896 711.992>
AnchorPoint: "top" 576 1280 basechar 0
AnchorPoint: "bottom" 960 0 basechar 0
LayerCount: 5
Back
Fore
SplineSet
581 1073 m 5
 571 1073 l 5
 516.575641496 893.215308307 474.393349922 704.70987997 439.895897922 512 c 5
 711.991588006 512 l 5
 677.514938945 704.22264534 635.365204149 892.450347512 581 1073 c 5
400.853869403 272 m 5
 387.478678485 181.685386295 375.344033865 90.8700885274 364 0 c 5
 105 0 l 5
 161 437.272727273 236 875.454545455 378 1280 c 5
 774 1280 l 5
 916 875.454545455 991 437.272727273 1047 0 c 5
 788 0 l 5
 776.64558048 90.9532816266 764.499101908 181.741889864 751.109391838 272 c 5
 400.853869403 272 l 5
EndSplineSet
Layer: 2
Layer: 3
Layer: 4
Position2: "Single Positioning lookup 21 subtable" dx=128 dy=0 dh=0 dv=0
Position2: "Single Positioning lookup 19 subtable" dx=-128 dy=0 dh=0 dv=0
Position2: "Single Positioning lookup 18 subtable" dx=0 dy=0 dh=0 dv=0
EndChar
StartChar: C
Encoding: 67 67 21
GlifName: C_
Width: 1024
VWidth: 0
Flags: W
HStem: -16 240<494.678 955.608> 1031 21G<885.5 930> 1056 240<493.97 925.892>
VStem: 112 256<369.394 908.636>
AnchorPoint: "bottom" 704 0 basechar 0
AnchorPoint: "top" 640 1280 basechar 0
LayerCount: 5
Back
SplineSet
960 248 m 5
 960 8 l 5
 863 -5 755 -16 643 -16 c 4
 358 -16 199 142 143 364 c 4
 114 478 112 594 112 704 c 4
 112 814 114 930 143 1044 c 4
 199 1266 351 1424 633 1424 c 4
 742 1424 848 1417 945 1406 c 5
 945 1166 l 5
 845 1175 735 1184 636 1184 c 4
 487 1184 413 1092 386 954 c 4
 371 876 368 791 368 704 c 4
 368 617 371 532 386 454 c 4
 413 316 490 224 643 224 c 4
 745 224 859 236 960 248 c 5
EndSplineSet
Fore
SplineSet
653 1296 m 4
 750 1296 844 1286 930 1271 c 5
 930 1031 l 5
 841 1046 741 1056 652 1056 c 4
 543 1056 476 1019 430 948 c 4
 383 875 368 767 368 640 c 4
 368 513 382 405 430 332 c 4
 477 260 543 224 659 224 c 4
 755 224 864 235 960 249 c 5
 960 9 l 5
 869 -5 767 -16 663 -16 c 4
 457 -16 319 49 223 186 c 4
 138 307 112 461 112 640 c 4
 112 819 138 973 223 1094 c 4
 318 1230 457 1296 653 1296 c 4
EndSplineSet
Layer: 2
SplineSet
643 1236 m 0
 684.837145374 1235.97036613 726.614315112 1232.12965722 768 1226 c 0
 838.84667922 1215.50685823 908.562896614 1198.54555938 978 1181 c 0
 1036.08283412 1166.32346879 1094.03637254 1151.14047818 1152 1136 c 1
 976 704 l 1
 1152 144 l 1
 1094.03637254 128.859521819 1036.08283412 113.67653121 978 99 c 0
 908.562896614 81.4544406196 838.84667922 64.4931417678 768 54 c 0
 726.614315112 47.8703427815 684.837145374 44.0296338701 643 44 c 0
 552.373612422 43.9358079865 459.971767897 63.5891031375 384 113 c 0
 301.308728082 166.781161362 243.630686973 253.689312427 213.516290586 347.622176214 c 0
 183.401894199 441.55504 176 541.357920902 176 640 c 0
 176 738.642079098 183.401894199 838.44496 213.516290586 932.377823786 c 0
 243.630686973 1026.31068757 301.308728082 1113.21883864 384 1167 c 0
 459.971767897 1216.41089686 552.373612422 1236.06419201 643 1236 c 0
  Spiro
    643 1236 o
    768 1226 o
    978 1181 o
    1152 1136 v
    976 704 v
    1152 144 v
    978 99 o
    768 54 o
    643 44 o
    384 113 o
    176 640 o
    384 1167 o
    0 0 z
  EndSpiro
EndSplineSet
Layer: 3
Layer: 4
Position2: "Single Positioning lookup 21 subtable" dx=128 dy=0 dh=0 dv=0
Position2: "Single Positioning lookup 19 subtable" dx=-128 dy=0 dh=0 dv=0
Position2: "Single Positioning lookup 18 subtable" dx=0 dy=0 dh=0 dv=0
EndChar
StartChar: D
Encoding: 68 68 22
GlifName: D_
Width: 1024
VWidth: 0
Flags: W
HStem: 0 240<384 656.02> 1040 240<384 656.02>
VStem: 128 256<240 1040> 784 256<371.107 908.893>
AnchorPoint: "top" 576 1280 basechar 0
LayerCount: 5
Back
Fore
SplineSet
474 1280 m 6
 717 1280 859 1188 943 1067 c 4
 1026 948 1040 798 1040 640 c 4
 1040 482 1026 332 943 213 c 4
 859 92 717 0 474 0 c 6
 128 0 l 5
 128 1280 l 5
 474 1280 l 6
784 640 m 4
 784 769 774 870 727 936 c 4
 688 990 624 1040 495 1040 c 6
 384 1040 l 5
 384 240 l 5
 495 240 l 6
 624 240 688 290 727 344 c 4
 774 410 784 511 784 640 c 4
EndSplineSet
Layer: 2
Layer: 3
Layer: 4
Position2: "Single Positioning lookup 21 subtable" dx=128 dy=0 dh=0 dv=0
Position2: "Single Positioning lookup 19 subtable" dx=-128 dy=0 dh=0 dv=0
Position2: "Single Positioning lookup 18 subtable" dx=0 dy=0 dh=0 dv=0
EndChar
StartChar: E
Encoding: 69 69 23
GlifName: E_
Width: 1024
VWidth: 0
Flags: W
HStem: 0 240<448 960> 524 240<448 832> 1040 240<448 960>
VStem: 192 256<240 524 764 1040>
AnchorPoint: "top" 512 1280 basechar 0
LayerCount: 5
Back
Fore
SplineSet
192 1280 m 5
 960 1280 l 5
 960 1040 l 5
 448 1040 l 5
 448 764 l 5
 832 764 l 5
 832 524 l 5
 448 524 l 5
 448 240 l 5
 960 240 l 5
 960 0 l 5
 192 0 l 5
 192 1280 l 5
EndSplineSet
Layer: 2
Layer: 3
Layer: 4
Position2: "Single Positioning lookup 21 subtable" dx=128 dy=0 dh=0 dv=0
Position2: "Single Positioning lookup 19 subtable" dx=-128 dy=0 dh=0 dv=0
Position2: "Single Positioning lookup 18 subtable" dx=0 dy=0 dh=0 dv=0
EndChar
StartChar: G
Encoding: 71 71 24
GlifName: G_
Width: 1024
VWidth: 0
Flags: W
HStem: -16 240<494.678 764.635> 528 240<640 768> 1023 21G<939.255 994> 1056 240<493.97 988.944>
VStem: 112 256<369.394 908.636> 640 384<528 768> 768 256<225.483 528>
AnchorPoint: "bottom" 704 0 basechar 0
AnchorPoint: "top" 640 1280 basechar 0
LayerCount: 5
Back
SplineSet
1024 21 m 5xf4
 913 1 790 -16 663 -16 c 4
 367 -16 201 142 143 364 c 4
 114 478 112 594 112 704 c 4
 112 814 114 930 143 1044 c 4
 202 1266 359 1424 653 1424 c 4
 775 1424 895 1415 1004 1403 c 5
 1004 1163 l 5
 892 1174 767 1184 656 1184 c 4
 495 1184 413 1092 386 954 c 4
 371 876 368 791 368 704 c 4
 368 617 371 532 386 454 c 4
 413 316 498 224 663 224 c 4
 697 224 732 226 768 228 c 5
 768 528 l 5xf4
 640 528 l 5
 640 768 l 5
 1024 768 l 5xf8
 1024 21 l 5xf4
EndSplineSet
Fore
SplineSet
653 1296 m 4xfa
 772.411552347 1296 888.129963899 1282.8 994 1263 c 5
 994 1023 l 5
 884.510791367 1042.8 761.489208633 1056 652 1056 c 4
 543 1056 476 1019 430 948 c 4
 383 875 368 767 368 640 c 4
 368 513 382 405 430 332 c 4
 477 260 543 224 659 224 c 4
 694.183502756 224 730.806972931 225.326323794 768 227.687437972 c 5
 768 528 l 5xfa
 640 528 l 5
 640 768 l 5
 1024 768 l 5xfc
 1024 17 l 5
 913.390572391 -1.48 789.410774411 -16 663 -16 c 4
 457 -16 319 49 223 186 c 4
 138 307 112 461 112 640 c 4
 112 819 138 973 223 1094 c 4
 318 1230 457 1296 653 1296 c 4xfa
EndSplineSet
Layer: 2
Layer: 3
Layer: 4
Position2: "Single Positioning lookup 21 subtable" dx=128 dy=0 dh=0 dv=0
Position2: "Single Positioning lookup 19 subtable" dx=-128 dy=0 dh=0 dv=0
Position2: "Single Positioning lookup 18 subtable" dx=0 dy=0 dh=0 dv=0
EndChar
StartChar: I
Encoding: 73 73 26
GlifName: I_
Width: 1024
VWidth: 0
Flags: W
HStem: 0 240<192 448 704 960> 1040 240<192 448 704 960>
VStem: 448 256<240 1040>
AnchorPoint: "bottom" 576 0 basechar 0
AnchorPoint: "top" 576 1280 basechar 0
LayerCount: 5
Back
Fore
SplineSet
960 1280 m 5
 960 1040 l 5
 704 1040 l 5
 704 240 l 5
 960 240 l 5
 960 0 l 5
 192 0 l 5
 192 240 l 5
 448 240 l 5
 448 1040 l 5
 192 1040 l 5
 192 1280 l 5
 960 1280 l 5
EndSplineSet
Layer: 2
Layer: 3
Layer: 4
EndChar
StartChar: J
Encoding: 74 74 27
GlifName: J_
Width: 1024
VWidth: 0
Flags: W
HStem: -12 240<384.754 647.913> 1040 240<320 704>
VStem: 704 256<287.077 1040>
AnchorPoint: "top" 576 1280 basechar 0
LayerCount: 5
Back
SplineSet
896 512 m 6
 896 391 894 286 856 193 c 4
 809 78 703 -16 534 -16 c 4
 441 -16 341 -5 224 15 c 5
 224 136 l 5
 342 116 444 104 534 104 c 4
 635 104 700 152 736 235 c 4
 768 308 768 410 768 512 c 6
 768 1288 l 5
 256 1288 l 5
 256 1408 l 5
 469 1408 683 1408 896 1408 c 5
 896 512 l 6
EndSplineSet
Fore
SplineSet
704 1040 m 5
 320 1040 l 5
 320 1280 l 5
 960 1280 l 5
 960 474 l 2
 960 381 960 253 871 139 c 0
 803 52 688 -12 543 -12 c 0
 384 -12 243 63 149 143 c 1
 286 335 l 1
 347 281 441 228 543 228 c 0
 599 228 643 253 667 290 c 0
 704 346 704 415 704 474 c 2
 704 1040 l 5
EndSplineSet
Layer: 2
Layer: 3
Layer: 4
EndChar
StartChar: L
Encoding: 76 76 29
GlifName: L_
Width: 1024
VWidth: 0
Flags: W
HStem: 0 240<448 1024>
VStem: 192 256<240 1280>
AnchorPoint: "bottom" 704 0 basechar 0
AnchorPoint: "top" 320 1280 basechar 0
LayerCount: 5
Back
Fore
SplineSet
192 0 m 1
 192 1280 l 5
 448 1280 l 5
 448 240 l 1
 1024 240 l 1
 1024 0 l 1
 192 0 l 1
EndSplineSet
Layer: 2
Layer: 3
Layer: 4
EndChar
StartChar: M
Encoding: 77 77 18
GlifName: M_
Width: 1920
VWidth: 0
Flags: H
LayerCount: 5
Back
Fore
Layer: 2
SplineSet
192 0 m 29
 192 1521 l 29
 576 900 l 29
 960 1521 l 29
 960 0 l 1053
EndSplineSet
Layer: 3
Layer: 4
Position2: "Single Positioning lookup 21 subtable" dx=128 dy=0 dh=0 dv=0
Position2: "Single Positioning lookup 19 subtable" dx=-128 dy=0 dh=0 dv=0
Position2: "Single Positioning lookup 18 subtable" dx=0 dy=0 dh=0 dv=0
EndChar
StartChar: N
Encoding: 78 78 30
GlifName: N_
Width: 1024
VWidth: 0
Flags: W
HStem: 0 21G<192 448 697.333 960>
VStem: 192 256<0 738> 704 256<542 1280>
AnchorPoint: "bottom" 576 0 basechar 0
AnchorPoint: "top" 576 1280 basechar 0
LayerCount: 5
Back
Fore
SplineSet
448 0 m 1
 192 0 l 1
 192 1280 l 1
 447 1280 l 1
 694 542 l 1
 704 542 l 1
 704 1280 l 1
 960 1280 l 1
 960 0 l 1
 704 0 l 1
 458 738 l 5
 448 738 l 5
 448 0 l 1
EndSplineSet
Layer: 2
SplineSet
192 0 m 5
 192 1521 l 5
 960 15 l 5
 960 1536 l 1029
EndSplineSet
Layer: 3
Layer: 4
Position2: "Single Positioning lookup 21 subtable" dx=128 dy=0 dh=0 dv=0
Position2: "Single Positioning lookup 19 subtable" dx=-128 dy=0 dh=0 dv=0
Position2: "Single Positioning lookup 18 subtable" dx=0 dy=0 dh=0 dv=0
EndChar
StartChar: O
Encoding: 79 79 31
GlifName: O_
Width: 1024
VWidth: 0
Flags: W
HStem: -16 240<472.675 679.325> 1056 240<472.675 679.325>
VStem: 128 256<332.805 947.195> 768 256<332.805 947.195>
AnchorPoint: "top" 576 1280 basechar 0
LayerCount: 5
Back
SplineSet
384 640 m 0
 384 500 383.315789474 347 332 231 c 0
 379 158 465 104 576 104 c 0
 687 104 773 158 820 231 c 0
 895 347 896 500 896 640 c 0
 896 780 895 933 820 1049 c 0
 773 1053.02362205 687 1056 576 1056 c 4
 465 1056 379 1053.02362205 332 1049 c 0
 383.315789474 933 384 780 384 640 c 0
128 640 m 0
 128 782 128 969 223 1112 c 0
 291 1214 411 1296 576 1296 c 0
 741 1296 861 1214 929 1112 c 0
 1024 969 1024 782 1024 640 c 0
 1024 498 1024 311 929 168 c 0
 861 66 741 -16 576 -16 c 0
 411 -16 291 66 223 168 c 0
 128 311 128 498 128 640 c 0
EndSplineSet
Fore
SplineSet
384 640 m 4
 384 531 385 412 430 322 c 4
 458 265 510 224 576 224 c 4
 642 224 694 265 722 322 c 4
 767 412 768 531 768 640 c 4
 768 749 767 868 722 958 c 4
 694 1015 642 1056 576 1056 c 4
 510 1056 458 1015 430 958 c 4
 385 868 384 749 384 640 c 4
128 640 m 4
 128 782 128 969 223 1112 c 4
 291 1214 411 1296 576 1296 c 4
 741 1296 861 1214 929 1112 c 4
 1024 969 1024 782 1024 640 c 4
 1024 498 1024 311 929 168 c 4
 861 66 741 -16 576 -16 c 4
 411 -16 291 66 223 168 c 4
 128 311 128 498 128 640 c 4
EndSplineSet
Layer: 2
SplineSet
576 1236 m 0
 642.387490427 1236 709.175905564 1219.32668316 766 1185 c 0
 809.302101904 1158.84177351 846.263910862 1122.54856957 874.265131356 1080.4147768 c 0
 902.266351849 1038.28098403 921.419683358 990.667630044 933.912896761 941.644732729 c 0
 958.899323566 843.598938099 960 741.179540269 960 640 c 0
 960 538.820459731 958.899323566 436.401061901 933.912896761 338.355267271 c 0
 921.419683358 289.332369956 902.266351849 241.719015972 874.265131356 199.585223202 c 0
 846.263910862 157.451430433 809.302101904 121.158226488 766 95 c 0
 709.175905564 60.6733168396 642.387490427 44 576 44 c 0
 509.612509573 44 442.824094436 60.6733168396 386 95 c 0
 342.697898096 121.158226488 305.736089138 157.451430433 277.734868644 199.585223202 c 0
 249.733648151 241.719015972 230.580316642 289.332369956 218.087103239 338.355267271 c 0
 193.100676434 436.401061901 192 538.820459731 192 640 c 0
 192 741.179540269 193.100676434 843.598938099 218.087103239 941.644732729 c 0
 230.580316642 990.667630044 249.733648151 1038.28098403 277.734868644 1080.4147768 c 0
 305.736089138 1122.54856957 342.697898096 1158.84177351 386 1185 c 0
 442.824094436 1219.32668316 509.612509573 1236 576 1236 c 0
  Spiro
    576 1236 o
    766 1185 o
    960 640 o
    766 95 o
    576 44 o
    386 95 o
    192 640 o
    386 1185 o
    0 0 z
  EndSpiro
EndSplineSet
Layer: 3
SplineSet
576 1364 m 0
 643.232974455 1364 710.624752961 1346.04787984 768 1311 c 0
 815.850534785 1281.77032553 856.230827797 1240.84198324 886.44733169 1193.60840999 c 0
 916.663835583 1146.37483675 936.888479806 1093.21313869 949.871199277 1038.6650265 c 0
 975.836638219 929.568802112 976 816.143614152 976 704 c 0
 976 591.856385848 975.836638219 478.431197888 949.871199277 369.3349735 c 0
 936.888479806 314.786861307 916.663835583 261.625163249 886.44733169 214.391590007 c 0
 856.230827797 167.158016764 815.850534786 126.229674468 768 97 c 0
 710.624752961 61.9521201594 643.232974455 44 576 44 c 0
 508.767025545 44 441.375247039 61.9521201594 384 97 c 0
 336.149465215 126.229674468 295.769172203 167.158016764 265.55266831 214.391590006 c 0
 235.336164417 261.625163249 215.111520194 314.786861307 202.128800723 369.3349735 c 0
 176.163361781 478.431197888 176 591.856385848 176 704 c 0
 176 816.143614152 176.163361781 929.568802112 202.128800723 1038.6650265 c 0
 215.111520194 1093.21313869 235.336164417 1146.37483675 265.55266831 1193.60840999 c 0
 295.769172203 1240.84198324 336.149465214 1281.77032553 384 1311 c 0
 441.375247039 1346.04787984 508.767025545 1364 576 1364 c 0
  Spiro
    576 1364 o
    768 1311 o
    976 704 o
    768 97 o
    576 44 o
    384 97 o
    176 704 o
    384 1311 o
    0 0 z
  EndSpiro
EndSplineSet
Layer: 4
Position2: "Single Positioning lookup 21 subtable" dx=128 dy=0 dh=0 dv=0
Position2: "Single Positioning lookup 19 subtable" dx=-128 dy=0 dh=0 dv=0
Position2: "Single Positioning lookup 18 subtable" dx=0 dy=0 dh=0 dv=0
EndChar
StartChar: R
Encoding: 82 82 34
GlifName: R_
Width: 1024
VWidth: 0
Flags: W
HStem: 0 21G<192 448 785.873 1065> 448 240<448 633> 1040 240<448 729.777>
VStem: 192 256<0 448 688 1040> 784 256<740.871 986.414>
AnchorPoint: "bottom" 704 0 basechar 0
AnchorPoint: "top" 576 1280 basechar 0
LayerCount: 5
Back
Fore
SplineSet
192 1280 m 5
 528 1280 l 6
 616 1280 676 1280 739 1265 c 4
 922 1224 1040 1076 1040 864 c 4
 1040 709 977 588 871 518 c 5
 1065 0 l 5
 793 0 l 5
 633 449 l 5
 602 448 568 448 528 448 c 6
 448 448 l 5
 448 0 l 5
 192 0 l 5
 192 1280 l 5
448 1040 m 5
 448 688 l 5
 530 688 l 6
 592 688 626 690 655 696 c 4
 744 712 784 776 784 864 c 4
 784 952 744 1016 655 1032 c 4
 626 1038 592 1040 530 1040 c 6
 448 1040 l 5
EndSplineSet
Layer: 2
Layer: 3
Layer: 4
Position2: "Single Positioning lookup 21 subtable" dx=128 dy=0 dh=0 dv=0
Position2: "Single Positioning lookup 19 subtable" dx=-128 dy=0 dh=0 dv=0
Position2: "Single Positioning lookup 18 subtable" dx=0 dy=0 dh=0 dv=0
EndChar
StartChar: S
Encoding: 83 83 35
GlifName: S_
Width: 1024
VWidth: 0
Flags: W
HStem: -16 240<191.397 692.274> 1030 21G<870 926> 1056 240<451.162 920.716>
VStem: 162 256<818.823 1021.41> 734 256<267.399 478.189>
AnchorPoint: "top" 576 1280 basechar 0
AnchorPoint: "bottom" 704 0 basechar 0
LayerCount: 5
Back
Fore
SplineSet
556 -16 m 0
 422 -16 302 -2 186 16 c 1
 186 260 l 1
 300 243 428 224 556 224 c 0
 704 224 734 304.526315789 734 374 c 0
 734 430.457831325 702 494.614457831 637 516 c 0
 557.615825427 542.118055582 462.857856036 534.229749634 350 597 c 0
 231 663.186440678 162 774.118644068 162 927 c 0
 162 1130.89731051 321 1296 556 1296 c 0
 692 1296 813 1283 926 1271 c 1
 926 1030 l 1
 814 1042 681 1056 556 1056 c 0
 448 1056 418 975.561403509 418 925 c 0
 418 865.064935065 442 816.103896104 498 795 c 0
 566.69375463 769.112395345 662.333718401 773.661877326 766 724 c 0
 934 643.518716578 990 497.529411765 990 374 c 0
 990 138.186046512 814 -16 556 -16 c 0
EndSplineSet
Layer: 2
SplineSet
576 1364 m 0
 770.390625 1364 906 1234.61328125 906 1034 c 4
 906 842.827148438 770.390625 704 576 704 c 0
 381.609375 704 246 842.827148438 246 1034 c 0
 246 1234.61328125 381.609375 1364 576 1364 c 0
  Spiro
    576 1364 o
    747.805 1323.1 o
    863.724 1208.57 o
    906 1034 o
    863.724 863.625 o
    747.805 746.99 o
    576 704 o
    404.195 746.99 o
    288.276 863.625 o
    246 1034 o
    288.276 1208.57 o
    404.195 1323.1 o
    0 0 z
  EndSpiro
576 704 m 0
 793.953125 704 946 562.8125 946 374 c 4
 946 175.747070312 793.953125 44 576 44 c 0
 358.046875 44 206 175.747070312 206 374 c 0
 206 562.8125 358.046875 704 576 704 c 0
  Spiro
    576 704 o
    768.63 660.486 o
    898.6 543.326 o
    946 374 o
    898.6 200.479 o
    768.63 85.4188 o
    576 44 o
    383.37 85.4188 o
    253.4 200.479 o
    206 374 o
    253.4 543.326 o
    383.37 660.486 o
    0 0 z
  EndSpiro
EndSplineSet
Layer: 3
SplineSet
119 128 m 4
 184.904269994 111.18024036 251.270678437 96.1709817957 318 83 c 4
 367.467542194 73.2361348436 417.112368286 64.3208602971 467 57 c 4
 516.369842506 49.7551237159 566.10145967 44.0724868737 616 44 c 4
 616.302285852 43.9995608738 616.604585094 43.9993408882 616.906896992 43.9993408882 c 4
 669.49887712 43.9993408882 722.473885493 50.6570190234 771.970171345 68.4211210116 c 4
 821.750974267 86.2873355155 867.595597611 115.708038332 903 155 c 4
 957.807926253 215.826077891 986.019112705 297.56119565 986.019112705 380.748041824 c 4
 986.019112705 444.39059731 969.486530117 508.404176843 935.672596142 562.302648486 c 4
 901.194781272 617.25932784 848.191915135 659.794841952 788 684 c 4
 732.310120284 706.394740841 671.937043957 713.651826484 612.48984382 721.953483908 c 4
 553.042643683 730.255141332 492.847644309 741.539261936 440 770 c 4
 391.608876844 796.06070902 350.889057216 836.211771491 324.568386313 884.461990539 c 4
 298.460800854 932.321588108 285.997509904 987.142675762 285.997509904 1041.66505784 c 4
 285.997509904 1129.46733644 318.945729442 1217.6052298 382 1278 c 4
 412.772778095 1307.47484516 450.147291975 1329.86784745 490.358882056 1343.96601727 c 4
 530.570472137 1358.06418709 573.388657033 1363.93819735 616 1364 c 4
 616.714448305 1364.00051781 l 4
 659.416881673 1364.00051781 701.951866126 1358.45752993 744 1351 c 4
 784.946897419 1343.73778204 825.561861064 1334.70284171 866 1325 c 4
 947.315630362 1305.48889709 1027.92865062 1283.11418434 1108 1259 c 1028
  Spiro
    119 128 {
    318 83 o
    467 57 o
    616 44 o
    903 155 o
    986 377 o
    788 684 o
    440 770 o
    286 1043 o
    382 1278 o
    616 1364 o
    744 1351 o
    866 1325 o
    1108 1259 o
    0 0 z
  EndSpiro
EndSplineSet
Layer: 4
Position2: "Single Positioning lookup 21 subtable" dx=128 dy=0 dh=0 dv=0
Position2: "Single Positioning lookup 19 subtable" dx=-128 dy=0 dh=0 dv=0
Position2: "Single Positioning lookup 18 subtable" dx=0 dy=0 dh=0 dv=0
EndChar
StartChar: T
Encoding: 84 84 36
GlifName: T_
Width: 1024
VWidth: 0
Flags: W
HStem: 0 21G<448 704> 1040 240<128 448 704 1024>
VStem: 448 256<0 1040>
AnchorPoint: "bottom" 576 0 basechar 0
AnchorPoint: "top" 576 1280 basechar 0
LayerCount: 5
Back
Fore
SplineSet
1024 1280 m 5
 1024 1040 l 5
 704 1040 l 5
 704 0 l 1
 448 0 l 1
 448 1040 l 5
 128 1040 l 5
 128 1280 l 5
 1024 1280 l 5
EndSplineSet
Layer: 2
Layer: 3
Layer: 4
EndChar
StartChar: V
Encoding: 86 86 38
GlifName: V_
Width: 1024
VWidth: 0
Flags: W
HStem: 0 21G<307 845>
VStem: 105 259<993.271 1280> 788 259<993.271 1280>
AnchorPoint: "top" 576 1280 basechar 0
LayerCount: 5
Back
SplineSet
113 1738 m 1
 163 1448 l 2
 247.236184118 959.430132117 360.279088989 471.386311474 576 25 c 1
 791.720911011 471.386311474 904.763815882 959.430132117 989 1448 c 2
 1039 1738 l 1025
  Spiro
    113 1738 {
    163 1448 ]
    576 25 v
    989 1448 [
    1039 1738 o
    0 0 z
  EndSpiro
EndSplineSet
Fore
SplineSet
581 207 m 5
 683 545.747271201 742 911.52225021 788 1280 c 5
 1047 1280 l 5
 991 842.727272727 916 404.545454545 774 0 c 5
 378 0 l 5
 236 404.545454545 161 842.727272727 105 1280 c 5
 364 1280 l 5
 410 911.52225021 469 543.945424013 571 207 c 5
 581 207 l 5
EndSplineSet
Layer: 2
SplineSet
49.8203125 1728.42578125 m 1
 176.1796875 1747.57324219 l 1
 226.1796875 1457.57421875 l 0
 301.982421875 1017.91796875 401.680664062 579.475585938 576 177.118164062 c 1
 751.01953125 581.08984375 849.983398438 1017.72167969 925.8203125 1457.57421875 c 0
 975.8203125 1747.57324219 l 1
 1102.1796875 1728.42578125 l 1
 1052.1796875 1438.42578125 l 0
 967.588867188 947.799804688 853.788085938 454.430664062 634.295898438 0.2392578125 c 1
 517.704101562 0.2392578125 l 1
 298.211914062 454.430664062 184.411132812 947.799804688 99.8203125 1438.42578125 c 0
 49.8203125 1728.42578125 l 1
  Spiro
    49.8203 1728.43 v
    176.18 1747.57 v
    226.18 1457.57 [
    311.729 1020.05 o
    424.806 589.79 o
    576 177.118 v
    727.498 590.464 o
    840.411 1020.32 o
    925.82 1457.57 ]
    975.82 1747.57 v
    1102.18 1728.43 v
    1052.18 1438.43 [
    955.132 948.926 o
    821.233 465.462 o
    634.296 0.239258 v
    517.704 0.239258 v
    330.767 465.462 o
    196.868 948.926 o
    99.8203 1438.43 ]
    0 0 z
  EndSpiro
EndSplineSet
Layer: 3
Layer: 4
Position2: "Single Positioning lookup 21 subtable" dx=128 dy=0 dh=0 dv=0
Position2: "Single Positioning lookup 19 subtable" dx=-128 dy=0 dh=0 dv=0
Position2: "Single Positioning lookup 18 subtable" dx=0 dy=0 dh=0 dv=0
EndChar
StartChar: W
Encoding: 87 87 39
GlifName: W_
Width: 1024
VWidth: 0
Flags: W
HStem: 0 21G<172 486.588 665.412 980>
VStem: 119 254<720.129 1280> 779 254<720.129 1280>
AnchorPoint: "top" 576 1280 basechar 0
LayerCount: 5
Back
Fore
SplineSet
484 640 m 1
 668 640 l 1
 735 311 l 1
 745 311 l 1
 771 609.561531449 779 942.572470374 779 1280 c 5
 1033 1280 l 5
 1033 850 1006 423.636363636 954 0 c 1
 670 0 l 1
 581 388 l 1
 571 388 l 1
 482 0 l 1
 198 0 l 1
 146 423.636363636 119 850 119 1280 c 5
 373 1280 l 5
 373 942.572470374 381 609.561531449 407 311 c 1
 417 311 l 1
 484 640 l 1
EndSplineSet
Layer: 2
Layer: 3
Layer: 4
Substitution2: "'ss10' Style Set 10 lookup 9 subtable" W.straight
Position2: "Single Positioning lookup 21 subtable" dx=128 dy=0 dh=0 dv=0
Position2: "Single Positioning lookup 19 subtable" dx=-128 dy=0 dh=0 dv=0
Position2: "Single Positioning lookup 18 subtable" dx=0 dy=0 dh=0 dv=0
EndChar
StartChar: Y
Encoding: 89 89 40
GlifName: Y_
Width: 1024
VWidth: 0
Flags: W
HStem: 0 21G<448 704>
VStem: 448 256<0 615.103>
AnchorPoint: "top" 576 1280 basechar 0
LayerCount: 5
Back
SplineSet
43 1610 m 1
 153 1320 l 2
 255.401028692 1050.03365163 380.955938319 783.898130411 576 571 c 1
 771.044061681 783.898130411 896.598971308 1050.03365163 999 1320 c 2
 1109 1610 l 1025
  Spiro
    43 1610 {
    153 1320 ]
    576 571 v
    999 1320 [
    1109 1610 o
    0 0 z
  EndSpiro
EndSplineSet
Fore
SplineSet
581 787 m 5
 648 923.305664062 738 1121.56732496 781 1280 c 1
 1052 1280 l 1
 962 1026.3030303 858 773.525252525 704 552 c 1
 704 0 l 1
 448 0 l 1
 448 552 l 1
 294 773.525252525 190 1026.3030303 100 1280 c 1
 371 1280 l 1
 412 1121.56732496 508 923.305664062 571 787 c 5
 581 787 l 5
EndSplineSet
Layer: 2
SplineSet
-17.30078125 1589.89648438 m 1
 103.30078125 1630.10253906 l 1
 213.30078125 1340.10351562 l 0
 305.5859375 1096.80761719 416.874023438 859.079101562 576 665.984375 c 1
 736.182617188 860.362304688 846.376953125 1096.70996094 938.69921875 1340.10253906 c 0
 1048.69921875 1630.10253906 l 1
 1169.30078125 1589.89648438 l 1
 1059.30078125 1299.89746094 l 0
 955.892578125 1027.27539062 827.939453125 753.9140625 624.55078125 531.907226562 c 0
 585.6328125 489.42578125 543.6328125 514.2421875 527.44921875 531.907226562 c 0
 324.060546875 753.9140625 196.107421875 1027.27539062 92.69921875 1299.89648438 c 0
 -17.30078125 1589.89648438 l 1
  Spiro
    -17.3008 1589.9 v
    103.301 1630.1 v
    213.301 1340.1 [
    312.88 1100.35 o
    431.882 872.292 o
    576 665.984 v
    720.579 872.84 o
    839.338 1100.59 o
    938.699 1340.1 ]
    1048.7 1630.1 v
    1169.3 1589.9 v
    1059.3 1299.9 [
    945.952 1029.23 o
    804.52 768.852 o
    624.551 531.907 o
    585.714 509.107 o
    551.138 514.63 o
    527.449 531.907 o
    347.48 768.852 o
    206.048 1029.23 o
    92.6992 1299.9 ]
    0 0 z
  EndSpiro
EndSplineSet
Layer: 3
Layer: 4
EndChar
StartChar: Z
Encoding: 90 90 41
GlifName: Z_
Width: 1024
VWidth: 0
Flags: W
HStem: 0 240<433 1024> 1040 240<148 699>
AnchorPoint: "top" 576 1280 basechar 0
LayerCount: 5
Back
Fore
SplineSet
148 1040 m 1
 148 1280 l 1
 1004 1280 l 1
 1004 1070 l 1
 433 250 l 1
 433 240 l 1
 1024 240 l 1
 1024 0 l 1
 128 0 l 1
 128 212 l 1
 699 1030 l 1
 699 1040 l 1
 148 1040 l 1
EndSplineSet
Layer: 2
Layer: 3
Layer: 4
Position2: "Single Positioning lookup 21 subtable" dx=128 dy=0 dh=0 dv=0
Position2: "Single Positioning lookup 19 subtable" dx=-128 dy=0 dh=0 dv=0
Position2: "Single Positioning lookup 18 subtable" dx=0 dy=0 dh=0 dv=0
EndChar
StartChar: b
Encoding: 98 98 0
GlifName: b
Width: 1920
VWidth: 0
InSpiro: 1
Flags: H
LayerCount: 5
Back
Fore
Layer: 2
SplineSet
592 980 m 4
 752.224698154 980 864 868.490323154 864 708 c 4
 864 547.509676846 752.224698154 436 592 436 c 4
 431.775301846 436 320 547.509676846 320 708 c 4
 320 868.490323154 431.775301846 980 592 980 c 4
EndSplineSet
Layer: 3
SplineSet
592 980 m 0
 572.478833777 980 552.952344892 977.678092966 534 973 c 0
 489.369481781 961.983647431 448.395288022 937.335718108 416.847957469 903.899074804 c 0
 385.300626916 870.4624315 363.153388665 828.887148763 348.912402211 785.178597136 c 0
 320.430429304 697.761493884 320 603.940049607 320 512 c 0
 320 420.059950393 320.430429303 326.238506116 348.91240221 238.821402863 c 0
 363.153388664 195.112851237 385.300626915 153.537568499 416.847957468 120.100925196 c 0
 448.395288021 86.6642818917 489.369481781 62.0163525689 534 51 c 0
 552.952344892 46.3219070343 572.478833777 44 592 44 c 0
 611.521166223 44 631.047655108 46.3219070343 650 51 c 0
 694.630518219 62.0163525691 735.604711978 86.664281892 767.152042531 120.100925196 c 0
 798.699373084 153.5375685 820.846611335 195.112851237 835.087597789 238.821402864 c 0
 863.569570696 326.238506116 864 420.059950393 864 512 c 0
 864 603.940049607 863.569570697 697.761493884 835.08759779 785.178597137 c 0
 820.846611336 828.887148763 798.699373085 870.462431501 767.152042532 903.899074804 c 0
 735.604711979 937.335718108 694.630518219 961.983647431 650 973 c 0
 631.047655108 977.678092966 611.521166223 980 592 980 c 0
  Spiro
    592 980 o
    534 973 o
    320 512 o
    534 51 o
    592 44 o
    650 51 o
    864 512 o
    650 973 o
    0 0 z
  EndSpiro
320 1536 m 1
 320 4 l 1025
  Spiro
    320 1536 {
    320 4 v
    0 0 z
  EndSpiro
EndSplineSet
Layer: 4
Position2: "Single Positioning lookup 17 subtable" dx=-128 dy=0 dh=0 dv=0
Position2: "Single Positioning lookup 16 subtable" dx=-128 dy=0 dh=0 dv=0
Position2: "Single Positioning lookup 15 subtable" dx=0 dy=0 dh=0 dv=0
Position2: "Single Positioning lookup 13 subtable" dx=-128 dy=0 dh=0 dv=0
Position2: "Single Positioning lookup 9 subtable" dx=128 dy=0 dh=0 dv=0
Position2: "Single Positioning lookup 8 subtable" dx=128 dy=0 dh=0 dv=0
Position2: "Single Positioning lookup 7 subtable" dx=0 dy=0 dh=0 dv=0
Position2: "Single Positioning lookup 3 subtable" dx=128 dy=0 dh=0 dv=0
EndChar
StartChar: e
Encoding: 101 101 3
GlifName: e
Width: 1920
VWidth: 0
Flags: H
LayerCount: 5
Back
Fore
Layer: 2
SplineSet
576 980 m 4
 567.324612998 980.007379198 558.648152101 979.686920168 550 979 c 4
 500.245423951 975.048008716 451.311733641 957.589653639 411.872890688 927.000215274 c 4
 372.434047735 896.410776909 343.188425924 853.820833359 324.673266956 807.470806807 c 4
 287.642949022 714.770753703 288.697604393 611.820126426 288 512 c 4
 287.91940119 500.467126224 287.856395582 488.93015463 287.856395582 477.392976915 c 4
 287.856395582 438.064565054 288.588533436 398.733758033 291.851659333 359.554711574 c 4
 296.072038818 308.882304454 305.0858767 258.105397834 325.073503873 211.350727412 c 4
 345.061131045 164.596056991 376.706318257 122.372381569 418.267368028 93.0776109084 c 4
 459.828417799 63.7828402475 510.278200692 48.5782008155 561 45 c 4
 569.320516814 44.413023977 577.65937952 44.0979331985 586 44 c 4
 588.022876744 43.9762479554 590.045623534 43.9646254314 592.068203574 43.9646254314 c 4
 622.122529267 43.9646254314 652.140036348 46.5308992478 682 50 c 4
 732.962111227 55.9207271802 783.604982912 64.3805382794 834 74 c 4
 886.675415345 84.0547468938 939.04273757 95.7244511352 991 109 c 5
 864 512 l 5
 889.476206294 557.86960532 903.034376913 610.28748356 903.034376913 662.755670374 c 4
 903.034376913 717.207323587 888.713226589 770.346948745 862.075606256 817.137046122 c 4
 835.777673956 863.33046722 797.567381177 902.617464504 752.335260943 930.536431088 c 4
 707.103140709 958.455397671 655.00156457 974.969175132 602 979 c 4
 593.349874121 979.657851193 584.675101813 979.992621044 576 980 c 4
  Spiro
    576 980 o
    550 979 o
    288 512 o
    561 45 o
    586 44 o
    682 50 o
    834 74 o
    991 109 v
    864 512 v
    602 979 o
    0 0 z
  EndSpiro
EndSplineSet
Layer: 3
Layer: 4
Position2: "Single Positioning lookup 17 subtable" dx=-128 dy=0 dh=0 dv=0
Position2: "Single Positioning lookup 16 subtable" dx=-128 dy=0 dh=0 dv=0
Position2: "Single Positioning lookup 15 subtable" dx=0 dy=0 dh=0 dv=0
Position2: "Single Positioning lookup 13 subtable" dx=-128 dy=0 dh=0 dv=0
Position2: "Single Positioning lookup 9 subtable" dx=128 dy=0 dh=0 dv=0
Position2: "Single Positioning lookup 8 subtable" dx=128 dy=0 dh=0 dv=0
Position2: "Single Positioning lookup 7 subtable" dx=0 dy=0 dh=0 dv=0
Position2: "Single Positioning lookup 3 subtable" dx=128 dy=0 dh=0 dv=0
EndChar
StartChar: l
Encoding: 108 108 8
GlifName: l
Width: 1920
VWidth: 0
Flags: H
LayerCount: 5
Back
Fore
Layer: 2
SplineSet
768 428 m 4
 881.1 428 960 349.2875 960 236 c 4
 960 122.7125 881.1 44 768 44 c 4
 654.9 44 576 122.7125 576 236 c 4
 576 349.2875 654.9 428 768 428 c 4
EndSplineSet
Layer: 3
SplineSet
576 512 m 5
 576 279 l 6
 576 250.02413576 576.250650297 220.853241002 581.789087314 192.411609125 c 4
 587.327524331 163.969977248 598.283075623 136.355475608 615.640005835 113.153370488 c 4
 632.996936048 89.951265367 656.590856162 71.5221891235 683.18843629 60.0256922758 c 4
 709.71792297 48.5586280343 738.874455326 43.9999099414 767.777448423 43.9999099414 c 4
 788.632381203 43.9999099414 809.364733367 46.1707165575 830 49 c 4
 852.099251962 52.0300091964 874.096652468 55.7808460698 896 60 c 4
 917.445865932 64.1310310856 938.789835328 68.7923615755 960 74 c 1028
  Spiro
    576 512 {
    576 279 ]
    768 44 o
    830 49 o
    896 60 o
    960 74 o
    0 0 z
  EndSpiro
EndSplineSet
Layer: 4
Substitution2: "'ss09' Style Set 9 lookup 8 subtable" l.base
Substitution2: "'ss08' Style Set 8 lookup 7 subtable" l.zstyle
Position2: "Single Positioning lookup 20 subtable" dx=-128 dy=0 dh=0 dv=0
Position2: "Single Positioning lookup 12 subtable" dx=128 dy=0 dh=0 dv=0
Position2: "Single Positioning lookup 11 subtable" dx=128 dy=0 dh=0 dv=0
Position2: "Single Positioning lookup 10 subtable" dx=-128 dy=0 dh=0 dv=0
Position2: "Single Positioning lookup 4 subtable" dx=128 dy=0 dh=0 dv=0
Position2: "Single Positioning lookup 2 subtable" dx=128 dy=0 dh=0 dv=0
EndChar
StartChar: m
Encoding: 109 109 9
GlifName: m
Width: 1920
VWidth: 0
Flags: H
CounterMasks: 1 1c
LayerCount: 5
Back
Fore
Layer: 2
SplineSet
384 980 m 4
 497.099786932 980 576 901.287286932 576 788 c 4
 576 674.712713068 497.099786932 596 384 596 c 4
 270.900213068 596 192 674.712713068 192 788 c 4
 192 901.287286932 270.900213068 980 384 980 c 4
EndSplineSet
Layer: 3
SplineSet
192 1024 m 5
 192 0 l 1029
  Spiro
    192 1024 {
    192 0 v
    0 0 z
  EndSpiro
192 0 m 5
 192 760 l 6
 192 787.714711887 192.512031429 815.691153786 199.014153359 842.632342798 c 4
 205.51627529 869.57353181 217.939956758 895.189749935 235.965433786 916.241767246 c 4
 253.990910815 937.293784557 277.303335918 953.63755532 302.899995799 964.263761507 c 4
 328.49665568 974.889967693 356.285288113 980.000000001 384 980 c 4
 411.714711887 980 439.503344321 974.889967691 465.100004202 964.263761504 c 4
 490.696664082 953.637555316 514.009089185 937.293784552 532.034566213 916.24176724 c 4
 550.060043242 895.18974993 562.483724709 869.573531806 568.98584664 842.632342795 c 4
 575.487968571 815.691153784 576 787.714711886 576 760 c 6
 576 0 l 1029
  Spiro
    192 0 {
    192 760 ]
    384 980 o
    576 760 [
    576 0 v
    0 0 z
  EndSpiro
EndSplineSet
Layer: 4
Substitution2: "Single Substitution lookup 52 subtable" larsenwork
Substitution2: "Single Substitution lookup 51 subtable" mm
Position2: "Single Positioning lookup 21 subtable" dx=128 dy=0 dh=0 dv=0
Position2: "Single Positioning lookup 19 subtable" dx=-128 dy=0 dh=0 dv=0
Position2: "Single Positioning lookup 18 subtable" dx=0 dy=0 dh=0 dv=0
EndChar
StartChar: n
Encoding: 110 110 10
GlifName: n
Width: 1920
VWidth: 0
Flags: H
LayerCount: 5
Back
Fore
Layer: 2
SplineSet
576 980 m 0
 726.799715909 980 832 875.049715909 832 724 c 0
 832 572.950284091 726.799715909 468 576 468 c 0
 425.200284091 468 320 572.950284091 320 724 c 0
 320 875.049715909 425.200284091 980 576 980 c 0
EndSplineSet
Layer: 3
SplineSet
832 0 m 1
 832 687 l 2
 832 723.931084581 831.315327639 761.212048046 822.636028962 797.108771891 c 0
 813.956730285 833.005495737 797.375202654 867.129546756 773.330569776 895.160969091 c 0
 749.285936896 923.192391424 718.199859157 944.939953425 684.080580569 959.074302967 c 0
 649.961301981 973.208652508 612.931084581 980.000000001 576 980 c 0
 539.068915419 980 502.038698018 973.208652506 467.91941943 959.074302963 c 0
 433.800140842 944.93995342 402.714063103 923.192391417 378.669430225 895.160969083 c 0
 354.624797347 867.12954675 338.043269716 833.005495731 329.363971039 797.108771887 c 0
 320.684672362 761.212048043 320 723.93108458 320 687 c 2
 320 0 l 1
 320 1024 l 1025
  Spiro
    832 0 {
    832 687 ]
    576 980 o
    320 687 [
    320 0 v
    320 1024 v
    0 0 z
  EndSpiro
EndSplineSet
Layer: 4
Position2: "Single Positioning lookup 17 subtable" dx=-128 dy=0 dh=0 dv=0
Position2: "Single Positioning lookup 16 subtable" dx=-128 dy=0 dh=0 dv=0
Position2: "Single Positioning lookup 15 subtable" dx=0 dy=0 dh=0 dv=0
Position2: "Single Positioning lookup 13 subtable" dx=-128 dy=0 dh=0 dv=0
Position2: "Single Positioning lookup 9 subtable" dx=128 dy=0 dh=0 dv=0
Position2: "Single Positioning lookup 8 subtable" dx=128 dy=0 dh=0 dv=0
Position2: "Single Positioning lookup 7 subtable" dx=0 dy=0 dh=0 dv=0
Position2: "Single Positioning lookup 3 subtable" dx=128 dy=0 dh=0 dv=0
EndChar
StartChar: v
Encoding: 118 118 1
GlifName: v
Width: 1920
VWidth: 0
Flags: H
LayerCount: 5
Back
Fore
Layer: 2
SplineSet
208 1348 m 5
 263 1058 l 6
 330.273416248 703.285623421 417.514412723 349.39223189 576 25 c 5
 734.485587277 349.39223189 821.726583752 703.285623421 889 1058 c 6
 944 1348 l 1029
  Spiro
    208 1348 {
    263 1058 ]
    576 25 v
    889 1058 [
    944 1348 o
    0 0 z
  EndSpiro
EndSplineSet
Layer: 3
Layer: 4
Position2: "Single Positioning lookup 17 subtable" dx=-128 dy=0 dh=0 dv=0
Position2: "Single Positioning lookup 16 subtable" dx=-128 dy=0 dh=0 dv=0
Position2: "Single Positioning lookup 15 subtable" dx=0 dy=0 dh=0 dv=0
Position2: "Single Positioning lookup 13 subtable" dx=-128 dy=0 dh=0 dv=0
Position2: "Single Positioning lookup 9 subtable" dx=128 dy=0 dh=0 dv=0
Position2: "Single Positioning lookup 8 subtable" dx=128 dy=0 dh=0 dv=0
Position2: "Single Positioning lookup 7 subtable" dx=0 dy=0 dh=0 dv=0
Position2: "Single Positioning lookup 3 subtable" dx=128 dy=0 dh=0 dv=0
EndChar
StartChar: w
Encoding: 119 119 14
GlifName: w
Width: 1920
VWidth: 0
Flags: H
LayerCount: 5
Back
Fore
Layer: 2
SplineSet
1074 1124 m 5
 832 14 l 5
 576 1009 l 5
 320 14 l 5
 78 1124 l 1029
EndSplineSet
Layer: 3
Layer: 4
Substitution2: "'ss10' Style Set 10 lookup 9 subtable" w.straight
Position2: "Single Positioning lookup 21 subtable" dx=128 dy=0 dh=0 dv=0
Position2: "Single Positioning lookup 19 subtable" dx=-128 dy=0 dh=0 dv=0
Position2: "Single Positioning lookup 18 subtable" dx=0 dy=0 dh=0 dv=0
EndChar
StartChar: y
Encoding: 121 121 16
GlifName: y
Width: 1920
VWidth: 0
Flags: H
LayerCount: 5
Back
Fore
Layer: 2
SplineSet
821.624023438 1037.43164062 m 1
 946.375976562 1010.56835938 l 1
 858.319335938 651.16015625 770.118164062 288.901367188 622.108398438 -90.6044921875 c 1
 501.891601562 -49.396484375 l 1
 646.481445312 321.337890625 733.522460938 677.8359375 821.624023438 1037.43164062 c 1
EndSplineSet
Layer: 3
SplineSet
208 1348 m 1
 263 1058 l 2
 327.373486346 718.576162902 416.718365756 379.292472081 591 81 c 1
 94 -192 l 1
 146.872119695 -205.431962816 201.448385908 -211.99187239 256 -212 c 0
 310.184567343 -212.008072924 364.758568319 -207.380550032 417 -193 c 0
 444.485206792 -185.434120224 471.251127497 -174.180451945 494 -157 c 0
 520.517206019 -136.973619191 540.514063338 -109.400746743 556 -80 c 0
 581.554912526 -31.4828500438 598.630677602 20.9877511204 616 73 c 0
 670.017596018 234.755109594 720.658265865 397.627079008 770.566630776 560.696914573 c 0
 820.474995686 723.766750137 858.901128685 890.140909973 889 1058 c 2
 941 1348 l 1025
  Spiro
    208 1348 {
    263 1058 ]
    591 81 v
    94 -192 v
    256 -212 o
    417 -193 o
    494 -157 o
    556 -80 o
    616 73 o
    889 1058 [
    941 1348 o
    0 0 z
  EndSpiro
EndSplineSet
Layer: 4
SplineSet
884 1024 m 21
 795.92072476 664.498351403 708.299467118 305.119568821 562 -70 c 1037
EndSplineSet
Substitution2: "'ss11' Style Set 11 lookup 10 subtable" y.long
Position2: "Single Positioning lookup 17 subtable" dx=-128 dy=0 dh=0 dv=0
Position2: "Single Positioning lookup 16 subtable" dx=-128 dy=0 dh=0 dv=0
Position2: "Single Positioning lookup 15 subtable" dx=0 dy=0 dh=0 dv=0
Position2: "Single Positioning lookup 13 subtable" dx=-128 dy=0 dh=0 dv=0
Position2: "Single Positioning lookup 9 subtable" dx=128 dy=0 dh=0 dv=0
Position2: "Single Positioning lookup 8 subtable" dx=128 dy=0 dh=0 dv=0
Position2: "Single Positioning lookup 7 subtable" dx=0 dy=0 dh=0 dv=0
Position2: "Single Positioning lookup 3 subtable" dx=128 dy=0 dh=0 dv=0
EndChar
StartChar: guillemotright
Encoding: 187 187 136
GlifName: guillemotright
Width: 1920
VWidth: 0
Flags: H
LayerCount: 5
Back
Fore
Layer: 2
SplineSet
520 147 m 5
 841 576 l 5
 520 1005 l 1029
EndSplineSet
Layer: 3
Layer: 4
EndChar
StartChar: Eacute
Encoding: 201 201 51
GlifName: E_acute
Width: 1024
VWidth: 0
Flags: W
HStem: 0 240<448 960> 524 240<448 832> 1040 240<448 960> 1408 21G<384 616.844>
VStem: 192 256<240 524 764 1040>
LayerCount: 5
Back
Fore
SplineSet
192 1280 m 5
 960 1280 l 5
 960 1040 l 5
 448 1040 l 5
 448 764 l 5
 832 764 l 5
 832 524 l 5
 448 524 l 5
 448 240 l 5
 960 240 l 5
 960 0 l 5
 192 0 l 5
 192 1280 l 5
384 1408 m 1
 526 1664 l 1
 792 1664 l 1
 602 1408 l 1
 384 1408 l 1
EndSplineSet
Layer: 2
Layer: 3
Layer: 4
EndChar
StartChar: Otilde
Encoding: 213 213 62
GlifName: O_tilde
Width: 1024
VWidth: 0
Flags: W
HStem: -16 240<472.675 679.325> 1056 240<472.675 679.325> 1412 190<556.009 765.591> 1470 190<386.409 595.991>
VStem: 128 256<332.805 947.195> 768 256<332.805 947.195>
LayerCount: 5
Back
Fore
SplineSet
384 640 m 4xcc
 384 531 385 412 430 322 c 4
 458 265 510 224 576 224 c 4
 642 224 694 265 722 322 c 4
 767 412 768 531 768 640 c 4
 768 749 767 868 722 958 c 4
 694 1015 642 1056 576 1056 c 4
 510 1056 458 1015 430 958 c 4
 385 868 384 749 384 640 c 4xcc
128 640 m 4
 128 782 128 969 223 1112 c 4
 291 1214 411 1296 576 1296 c 4
 741 1296 861 1214 929 1112 c 4
 1024 969 1024 782 1024 640 c 4
 1024 498 1024 311 929 168 c 4
 861 66 741 -16 576 -16 c 4
 411 -16 291 66 223 168 c 4
 128 311 128 498 128 640 c 4
498 1470 m 0xdc
 462 1470 453 1437 451 1407 c 1
 253 1413 l 1
 257 1541 319 1660 448 1660 c 0xdc
 565 1660 592 1602 654 1602 c 0
 690 1602 699 1635 701 1665 c 1
 899 1659 l 1
 896 1533 833 1412 704 1412 c 0xec
 587 1412 560 1470 498 1470 c 0xdc
EndSplineSet
Layer: 2
Layer: 3
Layer: 4
EndChar
StartChar: Ecaron
Encoding: 282 282 82
GlifName: E_caron
Width: 1024
VWidth: 0
Flags: W
HStem: 0 240<448 960> 524 240<448 832> 1040 240<448 960> 1408 21G<345.266 678.734>
VStem: 192 256<240 524 764 1040>
LayerCount: 5
Back
Fore
SplineSet
192 1280 m 5
 960 1280 l 5
 960 1040 l 5
 448 1040 l 5
 448 764 l 5
 832 764 l 5
 832 524 l 5
 448 524 l 5
 448 240 l 5
 960 240 l 5
 960 0 l 5
 192 0 l 5
 192 1280 l 5
661 1408 m 1
 363 1408 l 1
 136 1664 l 1
 384 1664 l 1
 512 1550 l 1
 640 1664 l 1
 888 1664 l 1
 661 1408 l 1
EndSplineSet
Layer: 2
Layer: 3
Layer: 4
EndChar
StartChar: Lslash
Encoding: 321 321 117
GlifName: L_slash
Width: 1920
VWidth: 0
Flags: H
LayerCount: 5
Back
SplineSet
128 491 m 5
 384 674 l 5
 384 1408 l 5
 512 1408 l 5
 512 765 l 5
 768 948 l 5
 768 797 l 5
 512 614 l 5
 512 120 l 5
 1024 120 l 5
 1024 0 l 5
 384 0 l 5
 384 523 l 5
 128 340 l 5
 128 491 l 5
EndSplineSet
Fore
Layer: 2
Layer: 3
Layer: 4
EndChar
StartChar: oe
Encoding: 339 339 109
GlifName: oe
Width: 1920
VWidth: 0
Flags: H
LayerCount: 5
Back
Fore
Layer: 2
SplineSet
368 980 m 4
 362.652829754 980 357.306132593 979.661200842 352 979 c 4
 329.346877271 976.177178753 307.603030794 967.486154718 288.465213556 955.041226414 c 4
 269.327396317 942.596298109 252.725653026 926.447783311 238.814593477 908.347653162 c 4
 210.992474381 872.147392865 193.900455742 828.674579002 182.948453588 784.350964468 c 4
 161.044449277 695.7037354 160.000000004 603.313288333 160 512 c 4
 160 420.686711666 161.044449269 328.296264597 182.948453576 239.649035527 c 4
 193.900455732 195.325420992 210.992474373 151.85260713 238.814593472 115.652346834 c 4
 252.725653021 97.5522166853 269.327396314 81.4037018871 288.465213554 68.9587735833 c 4
 307.603030793 56.5138452796 329.346877271 47.8228212459 352 45 c 4
 357.306132593 44.338799158 362.652829754 44 368 44 c 4
 373.347170246 44 378.693867407 44.338799158 384 45 c 4
 406.653122729 47.8228212469 428.396969206 56.5138452816 447.534786444 68.9587735861 c 4
 466.672603683 81.4037018906 483.274346974 97.5522166894 497.185406523 115.652346838 c 4
 525.007525619 151.852607135 542.099544258 195.325420998 553.051546412 239.649035532 c 4
 574.955550723 328.2962646 575.999999996 420.686711667 576 512 c 4
 576 603.313288334 574.955550731 695.703735403 553.051546424 784.350964473 c 4
 542.099544268 828.674579008 525.007525627 872.14739287 497.185406528 908.347653166 c 4
 483.274346979 926.447783315 466.672603686 942.596298113 447.534786446 955.041226417 c 4
 428.396969207 967.48615472 406.653122729 976.177178754 384 979 c 4
 378.693867407 979.661200842 373.347170246 980 368 980 c 4
  Spiro
    368 980 o
    352 979 o
    160 512 o
    352 45 o
    368 44 o
    384 45 o
    576 512 o
    384 979 o
    0 0 z
  EndSpiro
EndSplineSet
Layer: 3
Layer: 4
EndChar
StartChar: uni0204
Encoding: 516 516 244
GlifName: uni0204
Width: 1024
VWidth: 0
Flags: W
HStem: 0 240<448 960> 524 240<448 832> 1040 240<448 960> 1408 256<234 300 618 684>
VStem: 192 256<240 524 764 1040>
LayerCount: 5
Back
Fore
SplineSet
192 1280 m 5
 960 1280 l 5
 960 1040 l 5
 448 1040 l 5
 448 764 l 5
 832 764 l 5
 832 524 l 5
 448 524 l 5
 448 240 l 5
 960 240 l 5
 960 0 l 5
 192 0 l 5
 192 1280 l 5
452 1408 m 1
 234 1408 l 1
 54 1664 l 1
 300 1664 l 1
 452 1408 l 1
836 1408 m 1
 618 1408 l 1
 438 1664 l 1
 684 1664 l 1
 836 1408 l 1
EndSplineSet
Layer: 2
Layer: 3
Layer: 4
EndChar
StartChar: uni0206
Encoding: 518 518 245
GlifName: uni0206
Width: 1024
VWidth: 0
Flags: W
HStem: 0 240<448 960> 524 240<448 832> 1040 240<448 960> 1408 21G<152 360 664 872> 1500 180<379.571 644.429>
VStem: 192 256<240 524 764 1040>
LayerCount: 5
Back
Fore
SplineSet
192 1280 m 5
 960 1280 l 5
 960 1040 l 5
 448 1040 l 5
 448 764 l 5
 832 764 l 5
 832 524 l 5
 448 524 l 5
 448 240 l 5
 960 240 l 5
 960 0 l 5
 192 0 l 5
 192 1280 l 5
360 1408 m 1
 152 1408 l 1
 152 1576 313 1680 512 1680 c 0
 711 1680 872 1576 872 1408 c 1
 664 1408 l 1
 664 1460 615 1500 512 1500 c 0
 409 1500 360 1460 360 1408 c 1
EndSplineSet
Layer: 2
Layer: 3
Layer: 4
EndChar
StartChar: gravecomb
Encoding: 768 768 120
GlifName: gravecomb
Width: 1024
VWidth: 0
Flags: W
HStem: 1280 256<486 562>
VStem: 296 408
AnchorPoint: "top" 576 1152 mark 0
LayerCount: 5
Back
Fore
SplineSet
704 1280 m 1
 486 1280 l 1
 296 1536 l 1
 562 1536 l 1
 704 1280 l 1
EndSplineSet
Layer: 2
Layer: 3
Layer: 4
EndChar
StartChar: acutecomb
Encoding: 769 769 121
GlifName: acutecomb
Width: 1024
VWidth: 0
Flags: W
HStem: 1280 256<590 666>
VStem: 448 408
AnchorPoint: "top" 576 1152 mark 0
LayerCount: 5
Back
Fore
SplineSet
448 1280 m 1
 590 1536 l 1
 856 1536 l 1
 666 1280 l 1
 448 1280 l 1
EndSplineSet
Layer: 2
Layer: 3
Layer: 4
EndChar
StartChar: uni0302
Encoding: 770 770 122
GlifName: uni0302
Width: 1024
VWidth: 0
Flags: W
HStem: 1280 256<427 448 704 725>
AnchorPoint: "top" 576 1152 mark 0
LayerCount: 5
Back
Fore
SplineSet
427 1536 m 1
 725 1536 l 1
 952 1280 l 1
 704 1280 l 1
 576 1394 l 1
 448 1280 l 1
 200 1280 l 1
 427 1536 l 1
EndSplineSet
Layer: 2
Layer: 3
Layer: 4
EndChar
StartChar: tildecomb
Encoding: 771 771 123
GlifName: tildecomb
Width: 1024
VWidth: 0
Flags: W
HStem: 1284 190<556.009 765.591> 1342 190<386.409 595.991>
AnchorPoint: "top" 576 1152 mark 0
LayerCount: 5
Back
Fore
SplineSet
498 1342 m 0x40
 462 1342 453 1309 451 1279 c 1
 253 1285 l 1
 257 1413 319 1532 448 1532 c 0x40
 565 1532 592 1474 654 1474 c 0
 690 1474 699 1507 701 1537 c 1
 899 1531 l 1
 896 1405 833 1284 704 1284 c 0x80
 587 1284 560 1342 498 1342 c 0x40
EndSplineSet
Layer: 2
Layer: 3
Layer: 4
EndChar
StartChar: uni0304
Encoding: 772 772 124
GlifName: uni0304
Width: 1024
VWidth: 0
Flags: W
HStem: 1284 200<256 896>
AnchorPoint: "top" 576 1152 mark 0
LayerCount: 5
Back
Fore
SplineSet
256 1484 m 1
 896 1484 l 1
 896 1284 l 1
 256 1284 l 1
 256 1484 l 1
EndSplineSet
Layer: 2
Layer: 3
Layer: 4
EndChar
StartChar: uni030B
Encoding: 779 779 129
GlifName: uni030B_
Width: 1024
VWidth: 0
Flags: W
HStem: 1280 256<408 474 792 858>
AnchorPoint: "top" 576 1152 mark 0
LayerCount: 5
Back
Fore
SplineSet
640 1280 m 1
 792 1536 l 1
 1038 1536 l 1
 858 1280 l 1
 640 1280 l 1
256 1280 m 1
 408 1536 l 1
 654 1536 l 1
 474 1280 l 1
 256 1280 l 1
EndSplineSet
Layer: 2
Layer: 3
Layer: 4
EndChar
StartChar: uni030C
Encoding: 780 780 130
GlifName: uni030C_
Width: 1024
VWidth: 0
Flags: W
HStem: 1280 256<427 448 704 725>
AnchorPoint: "top" 576 1152 mark 0
LayerCount: 5
Back
Fore
SplineSet
725 1280 m 1
 427 1280 l 1
 200 1536 l 1
 448 1536 l 1
 576 1422 l 1
 704 1536 l 1
 952 1536 l 1
 725 1280 l 1
EndSplineSet
Layer: 2
Layer: 3
Layer: 4
EndChar
StartChar: uni030F
Encoding: 783 783 241
GlifName: uni030F_
Width: 1024
VWidth: 0
Flags: W
HStem: 1280 256<298 364 682 748>
AnchorPoint: "top" 576 1152 mark 0
LayerCount: 5
Back
Fore
SplineSet
516 1280 m 1
 298 1280 l 1
 118 1536 l 1
 364 1536 l 1
 516 1280 l 1
900 1280 m 1
 682 1280 l 1
 502 1536 l 1
 748 1536 l 1
 900 1280 l 1
EndSplineSet
Layer: 2
Layer: 3
Layer: 4
EndChar
StartChar: uni0311
Encoding: 785 785 363
GlifName: uni0311
Width: 1024
VWidth: 0
Flags: W
HStem: 1372 180<443.571 708.429>
AnchorPoint: "top" 576 1152 mark 0
LayerCount: 5
Back
Fore
SplineSet
424 1280 m 1
 216 1280 l 1
 216 1448 377 1552 576 1552 c 0
 775 1552 936 1448 936 1280 c 1
 728 1280 l 1
 728 1332 679 1372 576 1372 c 0
 473 1372 424 1332 424 1280 c 1
EndSplineSet
Layer: 2
Layer: 3
Layer: 4
EndChar
StartChar: uni0312
Encoding: 786 786 131
GlifName: uni0312
Width: 1024
VWidth: 0
Flags: W
HStem: 1280 272<550.165 646>
VStem: 448 198<1280 1358>
AnchorPoint: "top" 576 1152 mark 0
LayerCount: 5
Back
Fore
SplineSet
500 1467 m 0
 541 1519 614 1552 704 1552 c 1
 704 1362 l 1
 657 1362 646 1330 646 1280 c 1
 448 1280 l 1
 448 1336 448 1401 500 1467 c 0
EndSplineSet
Layer: 2
Layer: 3
Layer: 4
EndChar
StartChar: uni0315
Encoding: 789 789 132
GlifName: uni0315
Width: 1024
VWidth: 0
Flags: W
HStem: 1152 384<448 704>
VStem: 448 256<1152 1536>
LayerCount: 5
Back
Fore
SplineSet
448 1536 m 1
 704 1536 l 1
 704 1152 l 1
 448 1152 l 1
 448 1536 l 1
EndSplineSet
Layer: 2
Layer: 3
Layer: 4
EndChar
StartChar: uni0326
Encoding: 806 806 133
GlifName: uni0326
Width: 1024
VWidth: 0
Flags: W
HStem: -400 272<506 601.835>
VStem: 506 198<-205.998 -128>
AnchorPoint: "bottom" 576 0 mark 0
LayerCount: 5
Back
Fore
SplineSet
652 -315 m 0
 611 -367 538 -400 448 -400 c 1
 448 -210 l 1
 495 -210 506 -178 506 -128 c 1
 704 -128 l 1
 704 -184 704 -249 652 -315 c 0
EndSplineSet
Layer: 2
Layer: 3
Layer: 4
EndChar
StartChar: uni0327
Encoding: 807 807 134
GlifName: uni0327
Width: 1024
VWidth: 0
Flags: W
HStem: -272 180<256 438.858>
VStem: 452 188<-59.0098 23>
AnchorPoint: "bottom" 576 0 mark 0
LayerCount: 5
Back
Fore
SplineSet
640 23 m 1
 640 -37 640 -107 588 -177 c 0
 546 -233 480 -272 394 -272 c 0
 356 -272 307 -268 256 -262 c 1
 256 -82 l 1
 300 -88 343 -92 374 -92 c 0
 406 -92 427 -81 438 -60 c 0
 449 -39 452 -10 452 23 c 1
 640 23 l 1
EndSplineSet
Layer: 2
Layer: 3
Layer: 4
EndChar
StartChar: uni0328
Encoding: 808 808 135
GlifName: uni0328
Width: 1024
VWidth: 0
Flags: W
HStem: -350 160<573.681 704> -20 20G<504 704>
VStem: 401 171<-237.282 -77.1557>
AnchorPoint: "bottom" 576 0 mark 0
LayerCount: 5
Back
SplineSet
581 -230 m 4
 602.03875969 -230 622.162790698 -227 640 -218 c 5
 640 -339 l 5
 615.503875969 -347.561085973 589.170542636 -350 561 -350 c 4
 475.611764706 -350 370 -278.846153846 370 -165 c 4
 370 -86.1219512195 444.750122549 -34.6097560976 512 0 c 5
 640 0 l 5
 542.173295454 -47.8787878788 498 -90.1717171717 498 -158 c 4
 498 -210.682926829 543.748031496 -230 581 -230 c 4
EndSplineSet
Fore
SplineSet
704 0 m 1
 613 -42 572 -79 572 -138 c 0
 572 -176 605 -190 633 -190 c 0
 658 -190 682 -188 704 -183 c 1
 704 -341 l 1
 672 -348 637 -350 600 -350 c 0
 511 -350 401 -287 401 -185 c 0
 401 -97 472 -39 536 0 c 1
 704 0 l 1
EndSplineSet
Layer: 2
Layer: 3
Layer: 4
EndChar
StartChar: tonos
Encoding: 900 900 330
GlifName: tonos
Width: 1024
VWidth: 0
Flags: W
HStem: 1084 402
VStem: 448 394
AnchorPoint: "top" 579 963 mark 0
LayerCount: 5
Back
Fore
SplineSet
842 1311 m 25
 636 1084 l 25
 448 1242 l 25
 634 1486 l 25
 842 1311 l 25
EndSplineSet
Layer: 2
Layer: 3
Layer: 4
EndChar
StartChar: dieresistonos
Encoding: 901 901 331
GlifName: dieresistonos
Width: 1024
VWidth: 0
Flags: W
HStem: 1072 264<172.506 371.494 780.506 979.494>
VStem: 140 264<1104.51 1303.49> 748 264<1104.51 1303.49>
AnchorPoint: "top" 576 960 mark 0
LayerCount: 5
Back
Fore
SplineSet
795 1458 m 1
 589 1231 l 1
 458 1340 l 1
 644 1584 l 1
 795 1458 l 1
880 1336 m 0
 958 1336 1012 1282 1012 1204 c 0
 1012 1126 958 1072 880 1072 c 0
 802 1072 748 1126 748 1204 c 0
 748 1282 802 1336 880 1336 c 0
272 1336 m 0
 350 1336 404 1282 404 1204 c 0
 404 1126 350 1072 272 1072 c 0
 194 1072 140 1126 140 1204 c 0
 140 1282 194 1336 272 1336 c 0
EndSplineSet
Layer: 2
Layer: 3
Layer: 4
EndChar
StartChar: Alpha
Encoding: 913 913 254
GlifName: A_lpha
Width: 1024
VWidth: 0
Flags: W
HStem: 0 21G<103 243.5 908.5 1049> 388 120<316 836> 1289 119<555.101 596.899>
VStem: 103 135<0 299.508> 914 135<0 299.508>
LayerCount: 5
Back
Fore
SplineSet
103 0 m 1
 156 496 267 971 511 1408 c 1
 641 1408 l 1
 885 971 996 496 1049 0 c 1
 914 0 l 1
 903 136 878 265 859 388 c 1
 293 388 l 1
 274 265 249 136 238 0 c 1
 103 0 l 1
836 508 m 1
 769 800 696 1061 581 1289 c 1
 571 1289 l 1
 456 1061 383 800 316 508 c 1
 836 508 l 1
EndSplineSet
Validated: 1
Layer: 2
Layer: 3
Layer: 4
EndChar
StartChar: Eta
Encoding: 919 919 259
GlifName: E_ta
Width: 1024
VWidth: 0
Flags: W
HStem: 0 21G<128 256 896 1024> 644 120<256 896> 1388 20G<128 256 896 1024>
VStem: 128 128<0 644 764 1408> 896 128<0 644 764 1408>
LayerCount: 5
Back
Fore
SplineSet
128 1408 m 1
 256 1408 l 1
 256 764 l 1
 896 764 l 1
 896 1408 l 1
 1024 1408 l 1
 1024 0 l 1
 896 0 l 1
 896 644 l 1
 256 644 l 1
 256 0 l 1
 128 0 l 1
 128 1408 l 1
EndSplineSet
Validated: 1
Layer: 2
Layer: 3
Layer: 4
EndChar
StartChar: Rho
Encoding: 929 929 263
GlifName: R_ho
Width: 1024
VWidth: 0
Flags: W
HStem: 0 21G<256 384> 640 120<384 803.156> 1288 120<384 803.156>
VStem: 256 128<0 640 760 1288> 912 128<873.154 1174.85>
LayerCount: 5
Back
Fore
SplineSet
577 760 m 2
 653 760 693 762 729 770 c 0
 837 794 912 890 912 1024 c 0
 912 1158 837 1254 729 1278 c 0
 693 1286 653 1288 577 1288 c 2
 384 1288 l 1
 384 760 l 1
 577 760 l 2
384 0 m 1
 256 0 l 1
 256 1408 l 1
 577 1408 l 2
 654 1408 706 1408 761 1395 c 0
 920 1357 1040 1220 1040 1024 c 0
 1040 828 920 691 761 653 c 0
 706 640 654 640 577 640 c 2
 384 640 l 1
 384 0 l 1
EndSplineSet
Validated: 1
Layer: 2
Layer: 3
Layer: 4
EndChar
StartChar: Psi
Encoding: 936 936 297
GlifName: P_si
Width: 1024
VWidth: 0
Flags: W
HStem: 0 21G<512 640> 370 120<366.818 512 640 785.182> 1388 20G<128 256 512 640 896 1024>
VStem: 128 128<589.699 1408> 512 128<0 374.203 490 1408> 896 128<589.699 1408>
CounterMasks: 1 1c
LayerCount: 5
Back
Fore
SplineSet
512 370 m 1
 336 383 199 459 149 603 c 0
 129 661 128 718 128 768 c 2
 128 1408 l 1
 256 1408 l 1
 256 768 l 2
 256 720 259 676 271 640 c 0
 304 544 394 500 512 490 c 1
 512 1408 l 1
 640 1408 l 1
 640 490 l 1
 758 500 848 544 881 640 c 0
 893 676 896 720 896 768 c 2
 896 1408 l 1
 1024 1408 l 1
 1024 768 l 2
 1024 718 1023 661 1003 603 c 0
 953 459 816 383 640 370 c 1
 640 0 l 1
 512 0 l 1
 512 370 l 1
EndSplineSet
Validated: 1
Layer: 2
Layer: 3
Layer: 4
EndChar
StartChar: uni03A9
Encoding: 937 937 325
GlifName: uni03A_9
Width: 1024
VWidth: 0
Flags: W
HStem: 0 120<128 292 860 1024> 1304 120<407.346 744.654>
VStem: 112 128<412.845 1116.56> 912 128<412.845 1116.56>
LayerCount: 5
Back
SplineSet
240 832 m 4
 240 696.217773438 243.59375 562.989257812 274.223632812 438.341796875 c 4
 304.928710938 313.392578125 362.028320312 195.068359375 441.986328125 96.2646484375 c 5
 442 0 l 5
 128 0 l 5
 128 120 l 5
 281.615234375 120 l 5
 223.273747059 208.83203125 179.620870229 309.182378336 152.491210938 411.40234375 c 4
 115.15778921 552.068359375 112 694.576171875 112 832 c 1028
EndSplineSet
Fore
SplineSet
1040 832 m 0
 1040 695 1037 552 998 411 c 0
 971 312 922 216 860 130 c 1
 860 120 l 1
 1024 120 l 1
 1024 0 l 1
 710 0 l 1
 710 96 l 1
 790 195 847 313 878 438 c 0
 909 563 912 696 912 832 c 0
 912 923 907 1011 881 1089 c 0
 838 1217 740 1304 576 1304 c 0
 412 1304 314 1217 271 1089 c 0
 245 1011 240 923 240 832 c 0
 240 696 243 563 274 438 c 0
 305 313 362 195 442 96 c 1
 442 0 l 1
 128 0 l 1
 128 120 l 1
 292 120 l 1
 292 130 l 1
 230 216 181 312 154 411 c 0
 115 552 112 695 112 832 c 0
 112 926 117 1027 149 1124 c 0
 206 1298 354 1424 576 1424 c 0
 798 1424 946 1298 1003 1124 c 0
 1035 1027 1040 926 1040 832 c 0
EndSplineSet
Validated: 1
Layer: 2
SplineSet
176 1057 m 5
 176 832 l 6
 176 695.396936169 179.259040168 557.528496074 211.857754017 424.872094406 c 4
 244.456467865 292.215692738 305.065965088 166.187281215 391 60 c 5
 128 60 l 1029
  Spiro
    176 1057 {
    176 832 ]
    391 60 v
    128 60 v
    0 0 z
  EndSpiro
EndSplineSet
Layer: 3
SplineSet
112 1057 m 1
 240 1057 l 1
 240 832 l 0
 240 695.403320312 243.26171875 557.564453125 275.845703125 424.967773438 c 0
 308.4296875 292.37109375 369.01953125 166.403320312 454.872070312 60.3154296875 c 1
 391 55 l 1
 128 55 l 1
 128 65 l 1
 322.860351562 65 l 1
 239.189453125 170.06640625 179.9375 294.27734375 147.869140625 424.776367188 c 0
 115.255859375 557.4921875 112 695.390625 112 832 c 0
 112 1057 l 1
EndSplineSet
Layer: 4
EndChar
StartChar: tau
Encoding: 964 964 277
GlifName: tau
Width: 1024
VWidth: 0
Flags: W
HStem: -16 120<670.604 894.027> 904 120<128 512 640 1024>
VStem: 512 128<149.787 904>
LayerCount: 5
Back
Fore
SplineSet
1024 1024 m 1
 1024 904 l 1
 640 904 l 1
 640 696 640 487 640 279 c 0
 640 232 640 186 668 148 c 0
 688 121 719 104 768 104 c 0
 805 104 855 113 896 121 c 1
 896 -2 l 1
 853 -9 808 -16 758 -16 c 0
 686 -16 627 9 585 52 c 0
 512 128 512 218 512 279 c 0
 512 904 l 1
 128 904 l 1
 128 1024 l 1
 1024 1024 l 1
EndSplineSet
Validated: 1
Layer: 2
Layer: 3
Layer: 4
EndChar
StartChar: uni0414
Encoding: 1044 1044 141
GlifName: uni0414
Width: 1024
VWidth: 0
Flags: W
HStem: -256 376<0 120.947 896 1024> 0 120<240 768> 1288 120<384 768>
VStem: 0 128<-256 0> 256 128<973.732 1288> 768 128<120 1288> 896 128<-256 0>
LayerCount: 5
Back
SplineSet
320 1358 m 1
 320 1314 l 2
 320 893.609664181 297.333573636 469.923889573 188 64 c 1024
  Spiro
    320 1358 {
    320 1314 ]
    188 64 [
    0 0 z
  EndSpiro
EndSplineSet
Fore
SplineSet
240 120 m 1x7c
 768 120 l 1
 768 1288 l 1
 384 1288 l 1
 383 898 356 503 240 120 c 1x7c
109 120 m 1xba
 240 538 256 958 256 1408 c 1
 896 1408 l 1xba
 896 120 l 1xbc
 1024 120 l 1
 1024 -256 l 1
 896 -256 l 1xba
 896 0 l 1
 128 0 l 1x7a
 128 -256 l 1
 0 -256 l 1
 0 120 l 1
 109 120 l 1xba
EndSplineSet
Validated: 1
Layer: 2
Layer: 3
Layer: 4
EndChar
StartChar: uni0418
Encoding: 1048 1048 145
GlifName: uni0418
Width: 1024
VWidth: 0
Flags: W
HStem: 0 21G<128 266.881 896 1024> 1388 20G<128 256 886.102 1024>
VStem: 128 128<250 1408> 896 128<0 1158>
AnchorPoint: "top" 576 1408 basechar 0
LayerCount: 5
Back
Fore
SplineSet
896 0 m 1
 896 1158 l 1
 886 1158 l 1
 256 0 l 1
 128 0 l 1
 128 1408 l 1
 256 1408 l 1
 256 250 l 1
 266 250 l 1
 897 1408 l 1
 1024 1408 l 1
 1024 0 l 1
 896 0 l 1
EndSplineSet
Validated: 1
Layer: 2
Layer: 3
Layer: 4
EndChar
StartChar: uni042B
Encoding: 1067 1067 164
GlifName: uni042B_
Width: 1024
VWidth: 0
Flags: W
HStem: 0 120<256 548.014> 648 120<256 548.014> 1388 20G<128 256 896 1024>
VStem: 128 128<120 648 768 1408> 656 128<228.115 539.885> 896 128<0 1408>
LayerCount: 5
Back
Fore
SplineSet
256 648 m 1
 256 120 l 1
 307 120 l 2
 388 120 443 120 488 132 c 0
 587 158 656 254 656 384 c 0
 656 514 587 610 488 636 c 0
 443 648 388 648 307 648 c 2
 256 648 l 1
256 768 m 1
 307 768 l 2
 392 768 456 768 520 752 c 0
 672 714 784 575 784 384 c 0
 784 193 672 54 520 16 c 0
 456 0 392 0 307 0 c 2
 128 0 l 1
 128 1408 l 1
 256 1408 l 1
 256 768 l 1
1024 1408 m 1
 1024 0 l 1
 896 0 l 1
 896 1408 l 1
 1024 1408 l 1
EndSplineSet
Validated: 1
Layer: 2
Layer: 3
Layer: 4
EndChar
StartChar: uni042E
Encoding: 1070 1070 167
GlifName: uni042E_
Width: 1024
VWidth: 0
Flags: W
HStem: -18 124<600.845 807.155> 0 21G<128 256> 644 120<256 381> 1302 124<600.845 807.155> 1388 20G<128 256>
VStem: 128 128<0 644 764 1408> 381 124<264.025 644 764 1143.97> 903 124<264.612 1143.39>
LayerCount: 5
Back
Fore
SplineSet
704 1302 m 0xb7
 614 1302 560 1232 532 1144 c 0
 505 1060 505 893 505 704 c 0
 505 515 505 348 532 264 c 0
 560 176 614 106 704 106 c 0
 794 106 848 176 876 264 c 0
 903 348 903 515 903 704 c 0
 903 893 903 1060 876 1144 c 0
 848 1232 794 1302 704 1302 c 0xb7
704 1426 m 0
 869 1426 948 1315 988 1209 c 0
 1027 1105 1027 926 1027 704 c 0
 1027 482 1027 303 988 199 c 0
 948 93 869 -18 704 -18 c 0xb7
 539 -18 460 93 420 199 c 0
 385 293 381 450 381 644 c 1
 256 644 l 1
 256 0 l 1
 128 0 l 1
 128 1408 l 1
 256 1408 l 1x6f
 256 764 l 1
 381 764 l 1
 381 958 385 1115 420 1209 c 0
 460 1315 539 1426 704 1426 c 0
EndSplineSet
Validated: 1
Layer: 2
Layer: 3
Layer: 4
EndChar
StartChar: uni043E
Encoding: 1086 1086 183
GlifName: uni043E_
Width: 1024
VWidth: 0
Flags: W
HStem: -16 120<449.014 702.986> 920 120<449.014 702.986>
VStem: 224 128<213.2 810.8> 800 128<213.2 810.8>
LayerCount: 5
Back
Fore
SplineSet
576 1040 m 0
 736 1040 842 945 888 829 c 0
 926 734 928 633 928 512 c 0
 928 391 926 290 888 195 c 0
 842 79 736 -16 576 -16 c 0
 416 -16 310 79 264 195 c 0
 226 290 224 391 224 512 c 0
 224 633 226 734 264 829 c 0
 310 945 416 1040 576 1040 c 0
576 920 m 0
 480 920 416 868 384 789 c 0
 354 714 352 614 352 512 c 0
 352 410 354 310 384 235 c 0
 416 156 480 104 576 104 c 0
 672 104 736 156 768 235 c 0
 798 310 800 410 800 512 c 0
 800 614 798 714 768 789 c 0
 736 868 672 920 576 920 c 0
EndSplineSet
Validated: 1
Layer: 2
Layer: 3
Layer: 4
EndChar
StartChar: uni0446
Encoding: 1094 1094 190
GlifName: uni0446
Width: 1024
VWidth: 0
Flags: W
HStem: 0 120<384 768> 1004 20G<256 384 768 896>
VStem: 256 128<120 1024> 768 128<120 1024> 896 128<-256 0>
LayerCount: 5
Back
Fore
SplineSet
256 0 m 1xe8
 256 1024 l 1
 384 1024 l 1
 384 120 l 1
 768 120 l 1
 768 1024 l 1
 896 1024 l 1
 896 120 l 1xf0
 1024 120 l 1
 1024 -256 l 1
 896 -256 l 1
 896 0 l 1
 256 0 l 1xe8
EndSplineSet
Validated: 1
Layer: 2
Layer: 3
Layer: 4
EndChar
StartChar: uni044D
Encoding: 1101 1101 197
GlifName: uni044D_
Width: 1024
VWidth: 0
Flags: W
HStem: -16 120<265.321 693.195> 512 120<384 798> 920 120<280.242 693.195>
VStem: 800 128<223.952 512 632 800.048>
LayerCount: 5
Back
Fore
SplineSet
928 512 m 0
 928 391 926 286 885 193 c 0
 835 78 734 -16 546 -16 c 0
 449 -16 355 -1 256 25 c 1
 256 148 l 1
 356 121 456 104 546 104 c 0
 666 104 725 152 765 235 c 0
 800 308 800 410 800 512 c 1
 384 512 l 1
 384 632 l 1
 798 632 l 1
 795 691 786 745 765 789 c 0
 725 872 666 920 546 920 c 0
 460 920 367 905 276 880 c 1
 276 1003 l 1
 366 1026 453 1040 546 1040 c 0
 734 1040 835 946 885 831 c 0
 926 738 928 633 928 512 c 0
EndSplineSet
Validated: 1
Layer: 2
Layer: 3
Layer: 4
EndChar
StartChar: uni0458
Encoding: 1112 1112 217
GlifName: uni0458
Width: 1024
VWidth: 0
Flags: W
HStem: -272 120<174.991 544.103> 904 120<384 640> 1200 224<582.609 761.391>
VStem: 560 224<1222.61 1401.39> 640 128<-50.2326 904>
LayerCount: 5
Back
Fore
SplineSet
640 160 m 2xe8
 640 904 l 1
 384 904 l 1
 384 1024 l 1
 768 1024 l 1
 768 160 l 2
 768 100 768 -11 707 -113 c 0
 652 -205 556 -272 408 -272 c 0
 318 -272 236 -265 172 -257 c 1
 172 -137 l 1
 235 -144 319 -152 408 -152 c 0
 504 -152 559 -113 596 -54 c 0
 640 17 640 113 640 160 c 2xe8
672 1424 m 0
 738 1424 784 1378 784 1312 c 0
 784 1246 738 1200 672 1200 c 0
 606 1200 560 1246 560 1312 c 0xf0
 560 1378 606 1424 672 1424 c 0
EndSplineSet
Validated: 1
Layer: 2
Layer: 3
Layer: 4
EndChar
StartChar: arrowboth
Encoding: 8596 8596 345
GlifName: arrowboth
Width: 1920
VWidth: 0
Flags: H
LayerCount: 5
Back
SplineSet
285.307617188 644 m 5
 483 309 l 5
 379 241 l 5
 128 670 l 5
 128 738 l 5
 379 1167 l 5
 483 1099 l 5
 285.307617188 764 l 5
 954 764 l 5
 954 644 l 5
 285.307617188 644 l 5
866.692382812 764 m 5
 669 1099 l 5
 773 1167 l 5
 1024 738 l 5
 1024 670 l 5
 773 241 l 5
 669 309 l 5
 866.692382812 644 l 5
 198 644 l 5
 198 764 l 5
 866.692382812 764 l 5
EndSplineSet
Fore
Layer: 2
Layer: 3
Layer: 4
EndChar
StartChar: uniE005
Encoding: 57349 57349 285
GlifName: three.alt
Width: 1920
VWidth: 0
LayerCount: 5
Back
Fore
Validated: 1
Layer: 2
SplineSet
276 1408 m 5
 896 1408 l 5
 896 1298 l 5
 604 868 l 5
 611 861 l 5
 634 868 656 871 676 871 c 4
 761 871 825 821 865 761 c 4
 924 672 928 565 928 437 c 4
 928 312 918 198 866 122 c 4
 809 39 727 -16 590 -16 c 4
 477 -16 357 17 256 45 c 5
 256 170 l 5
 354 141 487 104 590 104 c 4
 781 104 800 255 800 439 c 4
 800 512 799 591 780 643 c 4
 742 746 665 772 592 772 c 4
 562 772 538 768 514 761 c 5
 455 837 l 5
 740 1288 l 5
 276 1288 l 5
 276 1408 l 5
EndSplineSet
Layer: 3
Layer: 4
EndChar
StartChar: github
Encoding: 1114113 -1 356
GlifName: github
Width: 1920
VWidth: 0
Flags: H
LayerCount: 5
Back
SplineSet
639 128 m 5
 639 1280 l 5
 -512 1280 l 5
 -512 128 l 5
 639 128 l 5
-640 1408 m 5
 768 1408 l 5
 768 0 l 5
 -640 0 l 5
 -640 1408 l 5
EndSplineSet
Fore
Layer: 2
Layer: 3
Layer: 4
Ligature2: "'liga' Standard Ligatures lookup 14 subtable" i t h u b I c o n
LCarets2: 8 0 0 0 0 0 0 0 0
EndChar
StartChar: one.base
Encoding: 1114152 -1 359
GlifName: one.base
Width: 1920
VWidth: 0
Flags: H
LayerCount: 5
Back
SplineSet
532 1408 m 5
 640 1408 l 5
 640 120 l 5
 896 120 l 5
 896 0 l 5
 640 0 l 5
 512 0 l 5
 256 0 l 5
 256 120 l 5
 512 120 l 5
 512 1246 l 5
 502 1246 l 5
 191 1022 l 5
 128 1114 l 5
 532 1408 l 5
EndSplineSet
Fore
Layer: 2
Layer: 3
Layer: 4
EndChar
